<svg xmlns="http://www.w3.org/2000/svg"  viewBox="0 0 64 64" width="64px" height="64px"><circle cx="32" cy="32" r="28" fill="#bbdef9"/><path fill="#fff" d="M43.5,17H14c-1.654,0-3,1.346-3,3v21c0,2.757,2.243,5,5,5h22c2.757,0,5-2.243,5-5v-1h0.5	C49.841,40,55,34.841,55,28.5S49.841,17,43.5,17z M43.5,35H42c-0.553,0-1-0.447-1-1V23c0-0.552,0.447-1,1-1h1.5	c3.584,0,6.5,2.916,6.5,6.5S47.084,35,43.5,35z"/><path fill="#ed7899" d="M27,41c-0.235,0-0.47-0.082-0.658-0.247C25.487,40.006,18,33.343,18,29.5c0-3.033,2.468-5.5,5.5-5.5 c1.291,0,2.521,0.457,3.5,1.278C27.979,24.457,29.209,24,30.5,24c3.032,0,5.5,2.467,5.5,5.5c0,3.843-7.487,10.506-8.342,11.253 C27.47,40.918,27.235,41,27,41z"/><path fill="#8d6c9f" d="M43.28,12.223c-0.188,0.343-0.549,0.533-0.916,0.52c-0.15-0.005-0.3-0.044-0.441-0.121 c-0.672-0.367-1.367-0.699-2.069-0.987c-0.512-0.211-0.756-0.795-0.545-1.305c0.21-0.512,0.795-0.754,1.305-0.545 c0.77,0.317,1.533,0.68,2.267,1.082C43.366,11.131,43.545,11.738,43.28,12.223z M37.049,9.657 c-0.105,0.542-0.621,0.894-1.173,0.791c-4.698-0.909-9.604-0.186-13.812,2.038c-0.161,0.085-0.333,0.122-0.503,0.115 c-0.346-0.013-0.676-0.204-0.847-0.53c-0.259-0.488-0.072-1.093,0.417-1.352c4.61-2.437,9.981-3.232,15.127-2.236 C36.8,8.591,37.155,9.116,37.049,9.657z"/><path fill="#8d6c9f" d="M32,56c-0.553,0-1-0.447-1-1v-2c0-0.553,0.447-1,1-1c0.553,0,1,0.447,1,1v2 C33,55.553,32.553,56,32,56z"/><path fill="#8d6c9f" d="M32,61C16.01,61,3,47.99,3,32S16.01,3,32,3s29,13.01,29,29S47.99,61,32,61z M32,5 C17.112,5,5,17.112,5,32s12.112,27,27,27s27-12.112,27-27S46.888,5,32,5z"/><path fill="#8d6c9f" d="M37.86,55.261c-0.088,0.023-0.176,0.034-0.265,0.034c-0.44-0.004-0.84-0.299-0.957-0.746 l-0.508-1.935c-0.141-0.535,0.179-1.08,0.713-1.221c0.531-0.137,1.081,0.178,1.221,0.713l0.508,1.933 C38.714,54.574,38.395,55.12,37.86,55.261z M27.44,54.505c-0.122,0.448-0.531,0.741-0.973,0.737 c-0.086-0.001-0.171-0.014-0.256-0.036c-0.533-0.146-0.847-0.695-0.7-1.228l0.528-1.93c0.146-0.534,0.704-0.843,1.228-0.7 c0.533,0.146,0.846,0.696,0.7,1.228L27.44,54.505z"/><path fill="#8d6c9f" d="M20.743,53.013c-0.483-0.27-0.655-0.878-0.385-1.361l0.976-1.746 c0.27-0.483,0.878-0.655,1.361-0.385s0.655,0.878,0.385,1.361l-0.976,1.746C21.834,53.11,21.225,53.282,20.743,53.013z"/><path fill="#8d6c9f" d="M43.31,53.013c0.483-0.27,0.655-0.878,0.385-1.361l-0.976-1.746 c-0.27-0.483-0.878-0.655-1.361-0.385s-0.655,0.878-0.385,1.361l0.976,1.746C42.218,53.11,42.827,53.282,43.31,53.013z"/><g><path fill="#8d6c9f" d="M27,41c-0.235,0-0.47-0.082-0.658-0.247C25.487,40.006,18,33.343,18,29.5c0-3.033,2.468-5.5,5.5-5.5 c1.291,0,2.521,0.457,3.5,1.278C27.979,24.457,29.209,24,30.5,24c3.032,0,5.5,2.467,5.5,5.5c0,3.843-7.487,10.506-8.342,11.253 C27.47,40.918,27.235,41,27,41z M23.5,26c-1.93,0-3.5,1.57-3.5,3.5c0,2.059,4.051,6.464,7,9.158c2.949-2.694,7-7.1,7-9.158 c0-1.93-1.57-3.5-3.5-3.5c-1.053,0-2.044,0.484-2.719,1.328c-0.381,0.475-1.182,0.475-1.562,0C25.544,26.484,24.553,26,23.5,26z"/></g><g><path fill="#8d6c9f" d="M38,46H16c-2.757,0-5-2.243-5-5V20c0-1.654,1.346-3,3-3h29.5C49.841,17,55,22.159,55,28.5 S49.841,40,43.5,40H43v1C43,43.757,40.757,46,38,46z M14,19c-0.552,0-1,0.449-1,1v21c0,1.654,1.346,3,3,3h22c1.654,0,3-1.346,3-3 v-2c0-0.553,0.447-1,1-1h1.5c5.238,0,9.5-4.262,9.5-9.5S48.738,19,43.5,19H14z"/></g><g><path fill="#8d6c9f" d="M43.5,35H42c-0.553,0-1-0.447-1-1V23c0-0.552,0.447-1,1-1h1.5c3.584,0,6.5,2.916,6.5,6.5 S47.084,35,43.5,35z M43,33h0.5c2.481,0,4.5-2.019,4.5-4.5S45.981,24,43.5,24H43V33z"/></g></svg>